Aleo-Light.ufo
<glyph name="quotedbl" format="1">
  <advance width="327"/>
  <unicode hex="0022"/>
  <note>
    quotedbl
  </note>
  <outline>
    <contour>
      <point x="112" y="708" type="line"/>
      <point x="70" y="708" type="line"/>
      <point x="70" y="562" type="line"/>
      <point x="75" y="485" type="line"/>
      <point x="76" y="479"/>
      <point x="78" y="467"/>
      <point x="91" y="467" type="curve" smooth="yes"/>
      <point x="99" y="467"/>
      <point x="106" y="470"/>
      <point x="108" y="485" type="curve"/>
      <point x="112" y="562" type="line"/>
    </contour>
    <contour>
      <point x="257" y="708" type="line"/>
      <point x="216" y="708" type="line"/>
      <point x="216" y="562" type="line"/>
      <point x="220" y="485" type="line"/>
      <point x="221" y="479"/>
      <point x="223" y="467"/>
      <point x="236" y="467" type="curve" smooth="yes"/>
      <point x="247" y="467"/>
      <point x="250" y="473"/>
      <point x="252" y="485" type="curve"/>
      <point x="257" y="562" type="line"/>
    </contour>
  </outline>
</glyph>
<glyph name="numbersign" format="1">
  <advance width="560"/>
  <unicode hex="0023"/>
  <note>
    numbersign
  </note>
  <outline>
    <contour>
      <point x="367" y="222" type="line"/>
      <point x="498" y="222" type="line"/>
      <point x="500" y="244" type="line"/>
      <point x="500" y="253"/>
      <point x="494" y="256"/>
      <point x="484" y="256" type="curve" smooth="yes"/>
      <point x="372" y="256" type="line"/>
      <point x="413" y="451" type="line"/>
      <point x="505" y="451" type="line" smooth="yes"/>
      <point x="518" y="451"/>
      <point x="526" y="457"/>
      <point x="528" y="468" type="curve"/>
      <point x="530" y="486" type="line"/>
      <point x="418" y="486" type="line"/>
      <point x="462" y="686" type="line"/>
      <point x="465" y="699"/>
      <point x="460" y="708"/>
      <point x="446" y="708" type="curve" smooth="yes"/>
      <point x="426" y="708" type="line"/>
      <point x="378" y="486" type="line"/>
      <point x="229" y="486" type="line"/>
      <point x="276" y="708" type="line"/>
      <point x="256" y="708" type="line" smooth="yes"/>
      <point x="244" y="708"/>
      <point x="234" y="699"/>
      <point x="232" y="688" type="curve"/>
      <point x="189" y="486" type="line"/>
      <point x="82" y="486" type="line" smooth="yes"/>
      <point x="69" y="486"/>
      <point x="61" y="481"/>
      <point x="60" y="470" type="curve" smooth="yes"/>
      <point x="58" y="451" type="line"/>
      <point x="184" y="451" type="line"/>
      <point x="143" y="256" type="line"/>
      <point x="34" y="256" type="line"/>
      <point x="32" y="248" type="line"/>
      <point x="28" y="232"/>
      <point x="32" y="222"/>
      <point x="46" y="222" type="curve" smooth="yes"/>
      <point x="138" y="222" type="line"/>
      <point x="91" y="0" type="line"/>
      <point x="112" y="0" type="line" smooth="yes"/>
      <point x="122" y="0"/>
      <point x="130" y="3"/>
      <point x="135" y="20" type="curve"/>
      <point x="178" y="222" type="line"/>
      <point x="327" y="222" type="line"/>
      <point x="284" y="22" type="line"/>
      <point x="282" y="12"/>
      <point x="283" y="0"/>
      <point x="300" y="0" type="curve" smooth="yes"/>
      <point x="320" y="0" type="line"/>
    </contour>
    <contour>
      <point x="183" y="256" type="line"/>
      <point x="224" y="451" type="line"/>
      <point x="373" y="451" type="line"/>
      <point x="332" y="256" type="line"/>
    </contour>
  </outline>
</glyph>
<glyph name="ampersand" format="1">
  <advance width="692"/>
  <unicode hex="0026"/>
  <note>
    ampersand
  </note>
  <outline>
    <contour>
      <point x="218" y="716"/>
      <point x="138" y="654"/>
      <point x="138" y="552" type="curve" smooth="yes"/>
      <point x="138" y="493"/>
      <point x="161" y="447"/>
      <point x="208" y="394" type="curve"/>
      <point x="118" y="360"/>
      <point x="40" y="280"/>
      <point x="40" y="181" type="curve" smooth="yes"/>
      <point x="40" y="68"/>
      <point x="132" y="-8"/>
      <point x="243" y="-8" type="curve" smooth="yes"/>
      <point x="340" y="-8"/>
      <point x="429" y="37"/>
      <point x="494" y="112" type="curve"/>
      <point x="596" y="11" type="line" smooth="yes"/>
      <point x="601" y="6"/>
      <point x="605" y="3"/>
      <point x="609" y="2" type="curve" smooth="yes"/>
      <point x="613" y="1"/>
      <point x="618" y="0"/>
      <point x="624" y="0" type="curve" smooth="yes"/>
      <point x="668" y="0" type="line"/>
      <point x="520" y="146" type="line"/>
      <point x="557" y="199"/>
      <point x="583" y="274"/>
      <point x="585" y="338" type="curve"/>
      <point x="558" y="338" type="line" smooth="yes"/>
      <point x="549" y="338"/>
      <point x="546" y="332"/>
      <point x="544" y="324" type="curve"/>
      <point x="537" y="270"/>
      <point x="519" y="220"/>
      <point x="491" y="174" type="curve"/>
      <point x="268" y="394" type="line" smooth="yes"/>
      <point x="219" y="443"/>
      <point x="182" y="489"/>
      <point x="182" y="553" type="curve" smooth="yes"/>
      <point x="182" y="625"/>
      <point x="235" y="678"/>
      <point x="316" y="678" type="curve" smooth="yes"/>
      <point x="376" y="678"/>
      <point x="426" y="635"/>
      <point x="438" y="580" type="curve" smooth="yes"/>
      <point x="439" y="577"/>
      <point x="443" y="568"/>
      <point x="455" y="570" type="curve"/>
      <point x="481" y="574" type="line"/>
      <point x="477" y="657"/>
      <point x="398" y="716"/>
      <point x="316" y="716" type="curve" smooth="yes"/>
    </contour>
    <contour>
      <point x="88" y="266"/>
      <point x="149" y="336"/>
      <point x="231" y="369" type="curve"/>
      <point x="466" y="138" type="line"/>
      <point x="411" y="71"/>
      <point x="341" y="31"/>
      <point x="250" y="31" type="curve" smooth="yes"/>
      <point x="164" y="31"/>
      <point x="88" y="91"/>
      <point x="88" y="184" type="curve" smooth="yes"/>
    </contour>
  </outline>
</glyph>
<glyph name="parenleft" format="1">
  <advance width="251"/>
  <unicode hex="0028"/>
  <note>
    parenleft
  </note>
  <outline>
    <contour>
      <point x="96" y="463"/>
      <point x="137" y="603"/>
      <point x="216" y="729" type="curve"/>
      <point x="220" y="737"/>
      <point x="220" y="744"/>
      <point x="213" y="750" type="curve"/>
      <point x="192" y="763" type="line"/>
      <point x="101" y="625"/>
      <point x="54" y="484"/>
      <point x="54" y="315" type="curve" smooth="yes"/>
      <point x="54" y="153"/>
      <point x="101" y="3"/>
      <point x="192" y="-133" type="curve"/>
      <point x="213" y="-120" type="line"/>
      <point x="221" y="-115"/>
      <point x="221" y="-107"/>
      <point x="216" y="-98" type="curve"/>
      <point x="138" y="27"/>
      <point x="96" y="163"/>
      <point x="96" y="315" type="curve" smooth="yes"/>
    </contour>
  </outline>
</glyph>
<glyph name="period" format="1">
  <advance width="230"/>
  <unicode hex="002E"/>
  <note>
    period
  </note>
  <outline>
    <contour>
      <point x="142" y="-8"/>
      <point x="162" y="13"/>
      <point x="162" y="39" type="curve" smooth="yes"/>
      <point x="162" y="64"/>
      <point x="142" y="85"/>
      <point x="116" y="85" type="curve" smooth="yes"/>
      <point x="90" y="85"/>
      <point x="70" y="64"/>
      <point x="70" y="39" type="curve" smooth="yes"/>
      <point x="70" y="13"/>
      <point x="90" y="-8"/>
      <point x="116" y="-8" type="curve" smooth="yes"/>
    </contour>
  </outline>
</glyph>
<glyph name="zero" format="1">
  <advance width="617"/>
  <unicode hex="0030"/>
  <note>
    zero
  </note>
  <outline>
    <contour>
      <point x="562" y="553"/>
      <point x="481" y="716"/>
      <point x="308" y="716" type="curve" smooth="yes"/>
      <point x="132" y="716"/>
      <point x="54" y="550"/>
      <point x="54" y="354" type="curve" smooth="yes"/>
      <point x="54" y="153"/>
      <point x="135" y="-8"/>
      <point x="308" y="-8" type="curve" smooth="yes"/>
      <point x="482" y="-8"/>
      <point x="562" y="159"/>
      <point x="562" y="354" type="curve" smooth="yes"/>
    </contour>
    <contour>
      <point x="512" y="191"/>
      <point x="459" y="32"/>
      <point x="308" y="32" type="curve" smooth="yes"/>
      <point x="161" y="32"/>
      <point x="104" y="181"/>
      <point x="104" y="354" type="curve" smooth="yes"/>
      <point x="104" y="518"/>
      <point x="157" y="676"/>
      <point x="307" y="676" type="curve" smooth="yes"/>
      <point x="453" y="676"/>
      <point x="512" y="527"/>
      <point x="512" y="354" type="curve" smooth="yes"/>
    </contour>
  </outline>
</glyph>
<glyph name="three" format="1">
  <advance width="541"/>
  <unicode hex="0033"/>
  <note>
    three
  </note>
  <outline>
    <contour>
      <point x="156" y="716"/>
      <point x="72" y="642"/>
      <point x="56" y="524" type="curve"/>
      <point x="86" y="520" type="line" smooth="yes"/>
      <point x="96" y="520"/>
      <point x="102" y="526"/>
      <point x="105" y="538" type="curve" smooth="yes"/>
      <point x="126" y="624"/>
      <point x="186" y="675"/>
      <point x="274" y="675" type="curve" smooth="yes"/>
      <point x="366" y="675"/>
      <point x="427" y="619"/>
      <point x="427" y="529" type="curve" smooth="yes"/>
      <point x="427" y="429"/>
      <point x="347" y="383"/>
      <point x="240" y="380" type="curve"/>
      <point x="240" y="346" type="line"/>
      <point x="359" y="346"/>
      <point x="444" y="307"/>
      <point x="444" y="193" type="curve" smooth="yes"/>
      <point x="444" y="103"/>
      <point x="365" y="32"/>
      <point x="264" y="32" type="curve" smooth="yes"/>
      <point x="169" y="32"/>
      <point x="114" y="77"/>
      <point x="82" y="171" type="curve" smooth="yes"/>
      <point x="77" y="184"/>
      <point x="62" y="185"/>
      <point x="52" y="181" type="curve"/>
      <point x="34" y="173" type="line"/>
      <point x="69" y="51"/>
      <point x="131" y="-8"/>
      <point x="264" y="-8" type="curve" smooth="yes"/>
      <point x="390" y="-8"/>
      <point x="492" y="76"/>
      <point x="492" y="194" type="curve" smooth="yes"/>
      <point x="492" y="292"/>
      <point x="433" y="350"/>
      <point x="334" y="369" type="curve"/>
      <point x="420" y="390"/>
      <point x="474" y="451"/>
      <point x="474" y="537" type="curve" smooth="yes"/>
      <point x="474" y="648"/>
      <point x="387" y="716"/>
      <point x="276" y="716" type="curve" smooth="yes"/>
    </contour>
  </outline>
</glyph>
<glyph name="eight" format="1">
  <advance width="553"/>
  <unicode hex="0038"/>
  <note>
    eight
  </note>
  <outline>
    <contour>
      <point x="407" y="-8"/>
      <point x="507" y="62"/>
      <point x="507" y="187" type="curve" smooth="yes"/>
      <point x="507" y="286"/>
      <point x="448" y="349"/>
      <point x="353" y="370" type="curve"/>
      <point x="432" y="391"/>
      <point x="482" y="454"/>
      <point x="482" y="535" type="curve" smooth="yes"/>
      <point x="482" y="646"/>
      <point x="392" y="716"/>
      <point x="278" y="716" type="curve" smooth="yes"/>
      <point x="160" y="716"/>
      <point x="73" y="645"/>
      <point x="73" y="535" type="curve" smooth="yes"/>
      <point x="73" y="455"/>
      <point x="117" y="394"/>
      <point x="202" y="370" type="curve"/>
      <point x="106" y="350"/>
      <point x="48" y="286"/>
      <point x="48" y="187" type="curve" smooth="yes"/>
      <point x="48" y="63"/>
      <point x="147" y="-8"/>
      <point x="277" y="-8" type="curve" smooth="yes"/>
    </contour>
    <contour>
      <point x="172" y="30"/>
      <point x="96" y="89"/>
      <point x="96" y="188" type="curve" smooth="yes"/>
      <point x="96" y="292"/>
      <point x="171" y="348"/>
      <point x="277" y="348" type="curve" smooth="yes"/>
      <point x="384" y="348"/>
      <point x="458" y="291"/>
      <point x="458" y="188" type="curve" smooth="yes"/>
      <point x="458" y="89"/>
      <point x="381" y="30"/>
      <point x="278" y="30" type="curve" smooth="yes"/>
    </contour>
    <contour>
      <point x="183" y="387"/>
      <point x="119" y="445"/>
      <point x="119" y="534" type="curve" smooth="yes"/>
      <point x="119" y="619"/>
      <point x="182" y="678"/>
      <point x="277" y="678" type="curve" smooth="yes"/>
      <point x="370" y="678"/>
      <point x="435" y="622"/>
      <point x="435" y="534" type="curve" smooth="yes"/>
      <point x="435" y="442"/>
      <point x="370" y="387"/>
      <point x="277" y="387" type="curve" smooth="yes"/>
    </contour>
  </outline>
</glyph>
<glyph name="nine" format="1">
  <advance width="531"/>
  <unicode hex="0039"/>
  <note>
    nine
  </note>
  <outline>
    <contour>
      <point x="306" y="301"/>
      <point x="364" y="324"/>
      <point x="404" y="368" type="curve"/>
      <point x="400" y="361"/>
      <point x="371" y="319"/>
      <point x="352" y="292" type="curve" smooth="yes"/>
      <point x="144" y="0" type="line"/>
      <point x="186" y="0" type="line" smooth="yes"/>
      <point x="197" y="0"/>
      <point x="206" y="4"/>
      <point x="211" y="12" type="curve"/>
      <point x="396" y="284" type="line" smooth="yes"/>
      <point x="446" y="355"/>
      <point x="483" y="421"/>
      <point x="483" y="494" type="curve" smooth="yes"/>
      <point x="483" y="622"/>
      <point x="396" y="716"/>
      <point x="270" y="716" type="curve" smooth="yes"/>
      <point x="145" y="716"/>
      <point x="44" y="626"/>
      <point x="44" y="503" type="curve" smooth="yes"/>
      <point x="44" y="388"/>
      <point x="122" y="301"/>
      <point x="245" y="301" type="curve" smooth="yes"/>
    </contour>
    <contour>
      <point x="437" y="411"/>
      <point x="360" y="338"/>
      <point x="258" y="338" type="curve" smooth="yes"/>
      <point x="157" y="338"/>
      <point x="92" y="405"/>
      <point x="92" y="506" type="curve" smooth="yes"/>
      <point x="92" y="604"/>
      <point x="162" y="676"/>
      <point x="269" y="676" type="curve" smooth="yes"/>
      <point x="369" y="676"/>
      <point x="437" y="602"/>
      <point x="437" y="502" type="curve" smooth="yes"/>
    </contour>
  </outline>
</glyph>
<glyph name="L" format="1">
  <advance width="582"/>
  <unicode hex="004C"/>
  <note>
    L
  </note>
  <outline>
    <contour>
      <point x="530" y="0" type="line"/>
      <point x="530" y="44" type="line"/>
      <point x="186" y="44" type="line"/>
      <point x="186" y="708" type="line"/>
      <point x="135" y="708" type="line"/>
      <point x="135" y="0" type="line"/>
    </contour>
    <contour>
      <point x="530" y="131" type="line"/>
      <point x="506" y="131" type="line" smooth="yes"/>
      <point x="492" y="131"/>
      <point x="486" y="122"/>
      <point x="485" y="106" type="curve"/>
      <point x="478" y="21" type="line"/>
      <point x="530" y="0" type="line"/>
    </contour>
    <contour>
      <point x="175" y="668" type="line"/>
      <point x="251" y="670" type="line"/>
      <point x="263" y="671"/>
      <point x="270" y="675"/>
      <point x="270" y="688" type="curve" smooth="yes"/>
      <point x="270" y="708" type="line" smooth="yes"/>
      <point x="50" y="708" type="line"/>
      <point x="50" y="688" type="line" smooth="yes"/>
      <point x="50" y="675"/>
      <point x="57" y="671"/>
      <point x="69" y="670" type="curve"/>
      <point x="148" y="668" type="line"/>
    </contour>
    <component base="SerfiBottomSymmetrical" xOffset="122"/>
    <contour>
      <point x="291" y="0" type="move" name="bottom"/>
    </contour>
    <contour>
      <point x="163" y="708" type="move" name="top"/>
    </contour>
    <contour>
      <point x="291" y="498" type="move" name="topright"/>
    </contour>
    <contour>
      <point x="291" y="354" type="move" name="center"/>
    </contour>
  </outline>
</glyph>
<glyph name="R" format="1">
  <advance width="676"/>
  <unicode hex="0052"/>
  <note>
    R
  </note>
  <outline>
    <contour>
      <point x="583" y="39" type="line"/>
      <point x="371" y="306" type="line" smooth="yes"/>
      <point x="365" y="314"/>
      <point x="357" y="321"/>
      <point x="349" y="326" type="curve"/>
      <point x="465" y="337"/>
      <point x="550" y="411"/>
      <point x="550" y="522" type="curve" smooth="yes"/>
      <point x="550" y="656"/>
      <point x="453" y="708"/>
      <point x="307" y="708" type="curve" smooth="yes"/>
      <point x="51" y="708" type="line"/>
      <point x="51" y="689" type="line" smooth="yes"/>
      <point x="51" y="678"/>
      <point x="57" y="672"/>
      <point x="70" y="671" type="curve"/>
      <point x="135" y="669" type="line"/>
      <point x="135" y="40" type="line"/>
      <point x="70" y="38" type="line"/>
      <point x="57" y="37"/>
      <point x="50" y="31"/>
      <point x="50" y="20" type="curve" smooth="yes"/>
      <point x="50" y="0" type="line"/>
      <point x="270" y="0" type="line"/>
      <point x="270" y="20" type="line" smooth="yes"/>
      <point x="270" y="31"/>
      <point x="263" y="37"/>
      <point x="250" y="38" type="curve"/>
      <point x="186" y="40" type="line"/>
      <point x="186" y="320" type="line"/>
      <point x="270" y="320" type="line" smooth="yes"/>
      <point x="295" y="320"/>
      <point x="303" y="318"/>
      <point x="318" y="300" type="curve"/>
      <point x="545" y="13" type="line" smooth="yes"/>
      <point x="550" y="7"/>
      <point x="556" y="0"/>
      <point x="570" y="0" type="curve"/>
      <point x="640" y="0" type="line"/>
      <point x="640" y="20" type="line" smooth="yes"/>
      <point x="640" y="31"/>
      <point x="634" y="37"/>
      <point x="621" y="38" type="curve"/>
    </contour>
    <contour>
      <point x="186" y="358" type="line"/>
      <point x="186" y="668" type="line"/>
      <point x="307" y="668" type="line" smooth="yes"/>
      <point x="419" y="668"/>
      <point x="500" y="629"/>
      <point x="500" y="518" type="curve" smooth="yes"/>
      <point x="500" y="414"/>
      <point x="418" y="358"/>
      <point x="300" y="358" type="curve" smooth="yes"/>
    </contour>
    <contour>
      <point x="295" y="707" type="move" name="top"/>
    </contour>
    <contour>
      <point x="338" y="0" type="move" name="bottom"/>
    </contour>
  </outline>
</glyph>
<glyph name="S" format="1">
  <advance width="514"/>
  <unicode hex="0053"/>
  <note>
    S
  </note>
  <outline>
    <contour>
      <point x="375" y="-8"/>
      <point x="474" y="74"/>
      <point x="474" y="207" type="curve" smooth="yes"/>
      <point x="474" y="311"/>
      <point x="405" y="351"/>
      <point x="296" y="386" type="curve" smooth="yes"/>
      <point x="190" y="420"/>
      <point x="118" y="449"/>
      <point x="118" y="536" type="curve" smooth="yes"/>
      <point x="118" y="617"/>
      <point x="184" y="673"/>
      <point x="276" y="673" type="curve" smooth="yes"/>
      <point x="324" y="673"/>
      <point x="368" y="665"/>
      <point x="408" y="648" type="curve"/>
      <point x="440" y="636" type="line"/>
      <point x="458" y="674" type="line"/>
      <point x="395" y="701"/>
      <point x="335" y="715"/>
      <point x="276" y="715" type="curve" smooth="yes"/>
      <point x="160" y="715"/>
      <point x="71" y="644"/>
      <point x="71" y="533" type="curve" smooth="yes"/>
      <point x="71" y="428"/>
      <point x="134" y="386"/>
      <point x="249" y="350" type="curve" smooth="yes"/>
      <point x="356" y="316"/>
      <point x="426" y="293"/>
      <point x="426" y="199" type="curve" smooth="yes"/>
      <point x="426" y="100"/>
      <point x="358" y="35"/>
      <point x="249" y="35" type="curve" smooth="yes"/>
      <point x="176" y="35"/>
      <point x="143" y="46"/>
      <point x="77" y="76" type="curve"/>
      <point x="57" y="31" type="line"/>
      <point x="118" y="5"/>
      <point x="181" y="-8"/>
      <point x="247" y="-8" type="curve" smooth="yes"/>
    </contour>
    <component base="SerifUpLeft" xOffset="57" yOffset="31"/>
    <component base="SerifUpLeft" xOffset="458" yOffset="674" xScale="-1" yScale="-1"/>
    <contour>
      <point x="257" y="708" type="move" name="top"/>
    </contour>
    <contour>
      <point x="257" y="0" type="move" name="bottom"/>
    </contour>
  </outline>
</glyph>
<glyph name="backslash" format="1">
  <advance width="414"/>
  <unicode hex="005C"/>
  <note>
    backslash
  </note>
  <outline>
    <contour>
      <point x="32" y="728" type="line"/>
      <point x="343" y="-22" type="line" smooth="yes"/>
      <point x="348" y="-35"/>
      <point x="359" y="-42"/>
      <point x="372" y="-42" type="curve" smooth="yes"/>
      <point x="391" y="-42" type="line"/>
      <point x="80" y="709" type="line" smooth="yes"/>
      <point x="75" y="721"/>
      <point x="66" y="728"/>
      <point x="53" y="728" type="curve" smooth="yes"/>
    </contour>
  </outline>
</glyph>
<glyph name="c" format="1">
  <advance width="459"/>
  <unicode hex="0063"/>
  <note>
    c
  </note>
  <outline>
    <contour>
      <point x="409" y="80" type="line"/>
      <point x="405" y="86"/>
      <point x="396" y="88"/>
      <point x="385" y="77" type="curve" smooth="yes"/>
      <point x="358" y="50"/>
      <point x="308" y="31"/>
      <point x="259" y="31" type="curve" smooth="yes"/>
      <point x="146" y="31"/>
      <point x="87" y="122"/>
      <point x="87" y="249" type="curve" smooth="yes"/>
      <point x="87" y="376"/>
      <point x="147" y="468"/>
      <point x="266" y="468" type="curve" smooth="yes"/>
      <point x="291" y="468"/>
      <point x="319" y="462"/>
      <point x="351" y="451" type="curve"/>
      <point x="352" y="430"/>
      <point x="357" y="374"/>
      <point x="357" y="373" type="curve"/>
      <point x="358" y="357"/>
      <point x="365" y="349"/>
      <point x="379" y="349" type="curve" smooth="yes"/>
      <point x="403" y="349" type="line"/>
      <point x="403" y="474" type="line"/>
      <point x="351" y="495"/>
      <point x="300" y="505"/>
      <point x="263" y="505" type="curve" smooth="yes"/>
      <point x="117" y="505"/>
      <point x="38" y="397"/>
      <point x="38" y="249" type="curve" smooth="yes"/>
      <point x="38" y="104"/>
      <point x="116" y="-7"/>
      <point x="252" y="-7" type="curve" smooth="yes"/>
      <point x="312" y="-7"/>
      <point x="382" y="14"/>
      <point x="422" y="64" type="curve"/>
    </contour>
    <contour>
      <point x="251" y="498" type="move" name="top"/>
    </contour>
    <contour>
      <point x="230" y="0" type="move" name="bottom"/>
    </contour>
  </outline>
</glyph>
<glyph name="d" format="1">
  <advance width="560"/>
  <unicode hex="0064"/>
  <note>
    d
  </note>
  <outline>
    <contour>
      <point x="521" y="20" type="line" smooth="yes"/>
      <point x="521" y="31"/>
      <point x="515" y="37"/>
      <point x="502" y="38" type="curve"/>
      <point x="454" y="39" type="line"/>
      <point x="454" y="728" type="line"/>
      <point x="335" y="728" type="line"/>
      <point x="335" y="708" type="line" smooth="yes"/>
      <point x="335" y="697"/>
      <point x="342" y="691"/>
      <point x="355" y="690" type="curve"/>
      <point x="407" y="688" type="line"/>
      <point x="407" y="433" type="line"/>
      <point x="370" y="483"/>
      <point x="318" y="506"/>
      <point x="255" y="506" type="curve" smooth="yes"/>
      <point x="116" y="506"/>
      <point x="38" y="393"/>
      <point x="38" y="248" type="curve" smooth="yes"/>
      <point x="38" y="97"/>
      <point x="95" y="-6"/>
      <point x="232" y="-6" type="curve" smooth="yes"/>
      <point x="306" y="-6"/>
      <point x="363" y="29"/>
      <point x="409" y="92" type="curve"/>
      <point x="414" y="13" type="line"/>
      <point x="415" y="4"/>
      <point x="420" y="0"/>
      <point x="428" y="0" type="curve" smooth="yes"/>
      <point x="521" y="0" type="line"/>
    </contour>
    <contour>
      <point x="407" y="129" type="line"/>
      <point x="366" y="71"/>
      <point x="312" y="32"/>
      <point x="246" y="32" type="curve" smooth="yes"/>
      <point x="132" y="32"/>
      <point x="87" y="115"/>
      <point x="87" y="248" type="curve" smooth="yes"/>
      <point x="87" y="371"/>
      <point x="141" y="469"/>
      <point x="264" y="469" type="curve" smooth="yes"/>
      <point x="326" y="469"/>
      <point x="372" y="443"/>
      <point x="407" y="391" type="curve"/>
    </contour>
    <contour>
      <point x="280" y="0" type="move" name="bottom"/>
    </contour>
    <contour>
      <point x="280" y="498" type="move" name="top"/>
    </contour>
    <contour>
      <point x="479" y="498" type="move" name="topright"/>
    </contour>
    <contour>
      <point x="280" y="249" type="move" name="center"/>
    </contour>
  </outline>
</glyph>
<glyph name="f" format="1">
  <advance width="383"/>
  <unicode hex="0066"/>
  <note>
    f
  </note>
  <outline>
    <contour>
      <point x="261" y="0" type="line"/>
      <point x="261" y="20" type="line" smooth="yes"/>
      <point x="261" y="31"/>
      <point x="254" y="37"/>
      <point x="241" y="38" type="curve"/>
      <point x="177" y="40" type="line"/>
      <point x="177" y="446" type="line"/>
      <point x="337" y="446" type="line"/>
      <point x="337" y="482" type="line"/>
      <point x="176" y="482" type="line"/>
      <point x="176" y="543" type="line" smooth="yes"/>
      <point x="176" y="622"/>
      <point x="204" y="679"/>
      <point x="288" y="679" type="curve" smooth="yes"/>
      <point x="294" y="679"/>
      <point x="318" y="677"/>
      <point x="325" y="676" type="curve" smooth="yes"/>
      <point x="331" y="675"/>
      <point x="340" y="678"/>
      <point x="340" y="683" type="curve"/>
      <point x="341" y="706" type="line"/>
      <point x="321" y="713"/>
      <point x="303" y="716"/>
      <point x="282" y="716" type="curve" smooth="yes"/>
      <point x="180" y="716"/>
      <point x="130" y="646"/>
      <point x="130" y="545" type="curve" smooth="yes"/>
      <point x="130" y="482" type="line"/>
      <point x="45" y="482" type="line"/>
      <point x="45" y="462" type="line" smooth="yes"/>
      <point x="45" y="454"/>
      <point x="49" y="451"/>
      <point x="59" y="450" type="curve" smooth="yes"/>
      <point x="130" y="445" type="line"/>
      <point x="130" y="40" type="line"/>
      <point x="67" y="38" type="line"/>
      <point x="54" y="37"/>
      <point x="47" y="31"/>
      <point x="47" y="20" type="curve" smooth="yes"/>
      <point x="47" y="0" type="line"/>
    </contour>
  </outline>
</glyph>
<glyph name="g" format="1">
  <advance width="516"/>
  <unicode hex="0067"/>
  <note>
    g
  </note>
  <outline>
    <contour>
      <point x="140" y="506"/>
      <point x="60" y="448"/>
      <point x="60" y="346" type="curve" smooth="yes"/>
      <point x="60" y="289"/>
      <point x="87" y="240"/>
      <point x="135" y="212" type="curve"/>
      <point x="108" y="198"/>
      <point x="74" y="164"/>
      <point x="74" y="128" type="curve" smooth="yes"/>
      <point x="74" y="94"/>
      <point x="88" y="74"/>
      <point x="128" y="60" type="curve"/>
      <point x="74" y="42"/>
      <point x="30" y="6"/>
      <point x="30" y="-52" type="curve" smooth="yes"/>
      <point x="30" y="-143"/>
      <point x="136" y="-186"/>
      <point x="242" y="-186" type="curve" smooth="yes"/>
      <point x="355" y="-186"/>
      <point x="466" y="-126"/>
      <point x="466" y="-27" type="curve" smooth="yes"/>
      <point x="466" y="58"/>
      <point x="392" y="75"/>
      <point x="291" y="80" type="curve" smooth="yes"/>
      <point x="181" y="85"/>
      <point x="115" y="87"/>
      <point x="115" y="140" type="curve" smooth="yes"/>
      <point x="115" y="164"/>
      <point x="136" y="186"/>
      <point x="160" y="200" type="curve"/>
      <point x="183" y="191"/>
      <point x="209" y="188"/>
      <point x="238" y="188" type="curve" smooth="yes"/>
      <point x="340" y="188"/>
      <point x="415" y="247"/>
      <point x="415" y="346" type="curve" smooth="yes"/>
      <point x="415" y="382"/>
      <point x="407" y="410"/>
      <point x="386" y="440" type="curve"/>
      <point x="462" y="446" type="line" smooth="yes"/>
      <point x="471" y="447"/>
      <point x="476" y="451"/>
      <point x="476" y="459" type="curve" smooth="yes"/>
      <point x="476" y="476" type="line"/>
      <point x="348" y="476" type="line"/>
      <point x="319" y="495"/>
      <point x="277" y="506"/>
      <point x="238" y="506" type="curve" smooth="yes"/>
    </contour>
    <contour>
      <point x="423" y="-107"/>
      <point x="337" y="-150"/>
      <point x="243" y="-150" type="curve" smooth="yes"/>
      <point x="169" y="-150"/>
      <point x="73" y="-124"/>
      <point x="73" y="-47" type="curve" smooth="yes"/>
      <point x="73" y="-3"/>
      <point x="107" y="30"/>
      <point x="161" y="51" type="curve"/>
      <point x="185" y="47"/>
      <point x="226" y="44"/>
      <point x="274" y="42" type="curve" smooth="yes"/>
      <point x="342" y="38"/>
      <point x="423" y="32"/>
      <point x="423" y="-34" type="curve" smooth="yes"/>
    </contour>
    <contour>
      <point x="158" y="220"/>
      <point x="104" y="267"/>
      <point x="104" y="345" type="curve" smooth="yes"/>
      <point x="104" y="425"/>
      <point x="157" y="471"/>
      <point x="238" y="471" type="curve" smooth="yes"/>
      <point x="317" y="471"/>
      <point x="372" y="423"/>
      <point x="372" y="346" type="curve" smooth="yes"/>
      <point x="372" y="267"/>
      <point x="318" y="220"/>
      <point x="238" y="220" type="curve" smooth="yes"/>
    </contour>
    <contour>
      <point x="258" y="498" type="move" name="top"/>
    </contour>
    <contour>
      <point x="246" y="-197" type="move" name="bottom"/>
    </contour>
  </outline>
</glyph>
<glyph name="h" format="1">
  <advance width="624"/>
  <unicode hex="0068"/>
  <note>
    h
  </note>
  <outline>
    <contour>
      <point x="512" y="40" type="line"/>
      <point x="512" y="318" type="line" smooth="yes"/>
      <point x="512" y="433"/>
      <point x="458" y="505"/>
      <point x="347" y="505" type="curve" smooth="yes"/>
      <point x="276" y="505"/>
      <point x="220" y="474"/>
      <point x="169" y="412" type="curve"/>
      <point x="169" y="727" type="line"/>
      <point x="49" y="727" type="line"/>
      <point x="49" y="708" type="line" smooth="yes"/>
      <point x="49" y="697"/>
      <point x="56" y="691"/>
      <point x="69" y="690" type="curve"/>
      <point x="121" y="688" type="line"/>
      <point x="121" y="40" type="line"/>
      <point x="69" y="38" type="line"/>
      <point x="56" y="37"/>
      <point x="49" y="31"/>
      <point x="49" y="20" type="curve" smooth="yes"/>
      <point x="49" y="0" type="line"/>
      <point x="241" y="0" type="line"/>
      <point x="241" y="20" type="line" smooth="yes"/>
      <point x="241" y="31"/>
      <point x="234" y="37"/>
      <point x="221" y="38" type="curve"/>
      <point x="169" y="40" type="line"/>
      <point x="169" y="373" type="line"/>
      <point x="210" y="428"/>
      <point x="265" y="467"/>
      <point x="335" y="467" type="curve" smooth="yes"/>
      <point x="425" y="467"/>
      <point x="465" y="411"/>
      <point x="465" y="318" type="curve" smooth="yes"/>
      <point x="465" y="0" type="line"/>
      <point x="584" y="0" type="line"/>
      <point x="584" y="20" type="line" smooth="yes"/>
      <point x="584" y="31"/>
      <point x="578" y="37"/>
      <point x="565" y="38" type="curve"/>
    </contour>
  </outline>
</glyph>
<glyph name="m" format="1">
  <advance width="883"/>
  <unicode hex="006D"/>
  <note>
    m
  </note>
  <outline>
    <contour>
      <point x="769" y="40" type="line"/>
      <point x="769" y="318" type="line" smooth="yes"/>
      <point x="769" y="427"/>
      <point x="719" y="505"/>
      <point x="610" y="505" type="curve" smooth="yes"/>
      <point x="532" y="505"/>
      <point x="472" y="460"/>
      <point x="451" y="385" type="curve"/>
      <point x="435" y="461"/>
      <point x="395" y="505"/>
      <point x="320" y="505" type="curve" smooth="yes"/>
      <point x="258" y="505"/>
      <point x="213" y="473"/>
      <point x="169" y="413" type="curve"/>
      <point x="165" y="486" type="line"/>
      <point x="164" y="494"/>
      <point x="159" y="498"/>
      <point x="150" y="498" type="curve" smooth="yes"/>
      <point x="52" y="498" type="line"/>
      <point x="52" y="479" type="line" smooth="yes"/>
      <point x="52" y="468"/>
      <point x="58" y="462"/>
      <point x="71" y="461" type="curve"/>
      <point x="124" y="459" type="line"/>
      <point x="124" y="40" type="line"/>
      <point x="71" y="38" type="line"/>
      <point x="58" y="37"/>
      <point x="52" y="31"/>
      <point x="52" y="20" type="curve" smooth="yes"/>
      <point x="52" y="0" type="line"/>
      <point x="243" y="0" type="line"/>
      <point x="243" y="20" type="line" smooth="yes"/>
      <point x="243" y="31"/>
      <point x="237" y="37"/>
      <point x="224" y="38" type="curve"/>
      <point x="171" y="40" type="line"/>
      <point x="171" y="376" type="line"/>
      <point x="202" y="426"/>
      <point x="249" y="467"/>
      <point x="308" y="467" type="curve" smooth="yes"/>
      <point x="389" y="467"/>
      <point x="421" y="406"/>
      <point x="421" y="318" type="curve" smooth="yes"/>
      <point x="421" y="0" type="line"/>
      <point x="541" y="0" type="line"/>
      <point x="541" y="20" type="line" smooth="yes"/>
      <point x="541" y="31"/>
      <point x="534" y="37"/>
      <point x="521" y="38" type="curve"/>
      <point x="469" y="40" type="line"/>
      <point x="469" y="318" type="line" smooth="yes"/>
      <point x="469" y="405"/>
      <point x="516" y="467"/>
      <point x="600" y="467" type="curve" smooth="yes"/>
      <point x="684" y="467"/>
      <point x="722" y="407"/>
      <point x="722" y="318" type="curve" smooth="yes"/>
      <point x="722" y="0" type="line"/>
      <point x="841" y="0" type="line"/>
      <point x="841" y="20" type="line" smooth="yes"/>
      <point x="841" y="31"/>
      <point x="835" y="37"/>
      <point x="822" y="38" type="curve"/>
    </contour>
  </outline>
</glyph>
<glyph name="bar" format="1">
  <advance width="208"/>
  <unicode hex="007C"/>
  <note>
    bar
  </note>
  <outline>
    <contour>
      <point x="85" y="758" type="line"/>
      <point x="85" y="-176" type="line"/>
      <point x="122" y="-176" type="line"/>
      <point x="122" y="758" type="line"/>
    </contour>
  </outline>
</glyph>
<glyph name="asciitilde" format="1">
  <advance width="572"/>
  <unicode hex="007E"/>
  <note>
    asciitilde
  </note>
  <outline>
    <contour>
      <point x="357" y="284"/>
      <point x="325" y="298"/>
      <point x="289" y="315" type="curve" smooth="yes"/>
      <point x="255" y="331"/>
      <point x="220" y="346"/>
      <point x="184" y="346" type="curve" smooth="yes"/>
      <point x="111" y="346"/>
      <point x="66" y="292"/>
      <point x="66" y="217" type="curve"/>
      <point x="104" y="217" type="line"/>
      <point x="104" y="263"/>
      <point x="134" y="307"/>
      <point x="186" y="307" type="curve" smooth="yes"/>
      <point x="211" y="307"/>
      <point x="246" y="292"/>
      <point x="283" y="276" type="curve" smooth="yes"/>
      <point x="320" y="259"/>
      <point x="355" y="244"/>
      <point x="388" y="244" type="curve" smooth="yes"/>
      <point x="461" y="244"/>
      <point x="506" y="299"/>
      <point x="506" y="374" type="curve"/>
      <point x="467" y="374" type="line"/>
      <point x="467" y="325"/>
      <point x="440" y="284"/>
      <point x="386" y="284" type="curve" smooth="yes"/>
    </contour>
  </outline>
</glyph>
<glyph name="currency" format="1">
  <advance width="532"/>
  <unicode hex="00A4"/>
  <note>
    currency
  </note>
  <outline>
    <contour>
      <point x="94" y="298"/>
      <point x="109" y="256"/>
      <point x="133" y="226" type="curve"/>
      <point x="56" y="150" type="line"/>
      <point x="80" y="125" type="line"/>
      <point x="158" y="202" type="line"/>
      <point x="186" y="180"/>
      <point x="224" y="164"/>
      <point x="266" y="164" type="curve" smooth="yes"/>
      <point x="305" y="164"/>
      <point x="344" y="178"/>
      <point x="374" y="202" type="curve"/>
      <point x="452" y="125" type="line"/>
      <point x="476" y="150" type="line"/>
      <point x="400" y="227" type="line"/>
      <point x="422" y="255"/>
      <point x="438" y="293"/>
      <point x="438" y="335" type="curve" smooth="yes"/>
      <point x="438" y="376"/>
      <point x="425" y="412"/>
      <point x="399" y="444" type="curve"/>
      <point x="476" y="521" type="line"/>
      <point x="451" y="546" type="line"/>
      <point x="374" y="469" type="line"/>
      <point x="346" y="491"/>
      <point x="308" y="507"/>
      <point x="266" y="507" type="curve" smooth="yes"/>
      <point x="225" y="507"/>
      <point x="189" y="494"/>
      <point x="157" y="468" type="curve"/>
      <point x="80" y="545" type="line"/>
      <point x="56" y="520" type="line"/>
      <point x="132" y="443" type="line"/>
      <point x="109" y="414"/>
      <point x="94" y="378"/>
      <point x="94" y="336" type="curve" smooth="yes"/>
    </contour>
    <contour>
      <point x="130" y="370"/>
      <point x="145" y="406"/>
      <point x="170" y="431" type="curve" smooth="yes"/>
      <point x="196" y="457"/>
      <point x="229" y="472"/>
      <point x="266" y="472" type="curve" smooth="yes"/>
      <point x="339" y="472"/>
      <point x="402" y="409"/>
      <point x="402" y="336" type="curve" smooth="yes"/>
      <point x="402" y="262"/>
      <point x="340" y="200"/>
      <point x="266" y="200" type="curve" smooth="yes"/>
      <point x="192" y="200"/>
      <point x="130" y="262"/>
      <point x="130" y="335" type="curve" smooth="yes"/>
    </contour>
  </outline>
</glyph>
<glyph name="section" format="1">
  <advance width="463"/>
  <unicode hex="00A7"/>
  <note>
    section
  </note>
  <outline>
    <contour>
      <point x="392" y="662" type="line"/>
      <point x="351" y="698"/>
      <point x="302" y="716"/>
      <point x="246" y="716" type="curve" smooth="yes"/>
      <point x="159" y="716"/>
      <point x="82" y="661"/>
      <point x="82" y="580" type="curve" smooth="yes"/>
      <point x="82" y="538"/>
      <point x="101" y="504"/>
      <point x="144" y="475" type="curve"/>
      <point x="85" y="454"/>
      <point x="47" y="415"/>
      <point x="47" y="357" type="curve" smooth="yes"/>
      <point x="47" y="281"/>
      <point x="110" y="246"/>
      <point x="199" y="209" type="curve" smooth="yes"/>
      <point x="282" y="174"/>
      <point x="350" y="150"/>
      <point x="350" y="80" type="curve" smooth="yes"/>
      <point x="350" y="8"/>
      <point x="294" y="-31"/>
      <point x="222" y="-31" type="curve" smooth="yes"/>
      <point x="175" y="-31"/>
      <point x="133" y="-15"/>
      <point x="101" y="12" type="curve" smooth="yes"/>
      <point x="89" y="22"/>
      <point x="80" y="21"/>
      <point x="71" y="9" type="curve" smooth="yes"/>
      <point x="60" y="-5" type="line"/>
      <point x="106" y="-46"/>
      <point x="157" y="-66"/>
      <point x="218" y="-66" type="curve" smooth="yes"/>
      <point x="318" y="-66"/>
      <point x="392" y="-8"/>
      <point x="392" y="88" type="curve" smooth="yes"/>
      <point x="392" y="131"/>
      <point x="374" y="159"/>
      <point x="332" y="190" type="curve"/>
      <point x="385" y="213"/>
      <point x="415" y="254"/>
      <point x="415" y="311" type="curve" smooth="yes"/>
      <point x="415" y="388"/>
      <point x="350" y="427"/>
      <point x="270" y="463" type="curve" smooth="yes"/>
      <point x="189" y="498"/>
      <point x="124" y="524"/>
      <point x="124" y="582" type="curve" smooth="yes"/>
      <point x="124" y="641"/>
      <point x="185" y="679"/>
      <point x="247" y="679" type="curve" smooth="yes"/>
      <point x="289" y="679"/>
      <point x="320" y="669"/>
      <point x="356" y="645" type="curve" smooth="yes"/>
      <point x="368" y="637"/>
      <point x="377" y="637"/>
      <point x="382" y="646" type="curve"/>
    </contour>
    <contour>
      <point x="89" y="411"/>
      <point x="122" y="438"/>
      <point x="171" y="459" type="curve"/>
      <point x="177" y="455"/>
      <point x="328" y="387"/>
      <point x="261" y="418" type="curve" smooth="yes"/>
      <point x="326" y="388"/>
      <point x="373" y="362"/>
      <point x="373" y="301" type="curve" smooth="yes"/>
      <point x="373" y="256"/>
      <point x="349" y="226"/>
      <point x="306" y="206" type="curve"/>
      <point x="265" y="228"/>
      <point x="255" y="231"/>
      <point x="210" y="251" type="curve" smooth="yes"/>
      <point x="143" y="280"/>
      <point x="89" y="311"/>
      <point x="89" y="363" type="curve" smooth="yes"/>
    </contour>
  </outline>
</glyph>
<glyph name="copyright" format="1">
  <advance width="820"/>
  <unicode hex="00A9"/>
  <note>
    copyright
  </note>
  <outline>
    <contour>
      <point x="509" y="177"/>
      <point x="467" y="166"/>
      <point x="416" y="166" type="curve" smooth="yes"/>
      <point x="304" y="166"/>
      <point x="240" y="244"/>
      <point x="240" y="354" type="curve" smooth="yes"/>
      <point x="240" y="469"/>
      <point x="313" y="544"/>
      <point x="424" y="544" type="curve" smooth="yes"/>
      <point x="473" y="544"/>
      <point x="503" y="533"/>
      <point x="541" y="508" type="curve"/>
      <point x="550" y="501"/>
      <point x="560" y="499"/>
      <point x="564" y="508" type="curve"/>
      <point x="576" y="524" type="line"/>
      <point x="535" y="561"/>
      <point x="486" y="580"/>
      <point x="422" y="580" type="curve" smooth="yes"/>
      <point x="293" y="580"/>
      <point x="196" y="489"/>
      <point x="196" y="354" type="curve" smooth="yes"/>
      <point x="196" y="226"/>
      <point x="280" y="129"/>
      <point x="414" y="129" type="curve" smooth="yes"/>
      <point x="480" y="129"/>
      <point x="533" y="145"/>
      <point x="582" y="194" type="curve"/>
      <point x="566" y="209" type="line" smooth="yes"/>
      <point x="561" y="214"/>
      <point x="554" y="212"/>
      <point x="547" y="207" type="curve" smooth="yes"/>
    </contour>
    <contour>
      <point x="50" y="154"/>
      <point x="210" y="-7"/>
      <point x="410" y="-7" type="curve" smooth="yes"/>
      <point x="609" y="-7"/>
      <point x="771" y="155"/>
      <point x="771" y="354" type="curve" smooth="yes"/>
      <point x="771" y="553"/>
      <point x="610" y="715"/>
      <point x="410" y="715" type="curve" smooth="yes"/>
      <point x="214" y="715"/>
      <point x="50" y="557"/>
      <point x="50" y="354" type="curve" smooth="yes"/>
    </contour>
    <contour>
      <point x="79" y="533"/>
      <point x="223" y="688"/>
      <point x="410" y="688" type="curve" smooth="yes"/>
      <point x="595" y="688"/>
      <point x="742" y="539"/>
      <point x="742" y="354" type="curve" smooth="yes"/>
      <point x="742" y="172"/>
      <point x="598" y="20"/>
      <point x="410" y="20" type="curve" smooth="yes"/>
      <point x="226" y="20"/>
      <point x="79" y="171"/>
      <point x="79" y="354" type="curve" smooth="yes"/>
    </contour>
  </outline>
</glyph>
<glyph name="macron" format="1">
  <advance width="405"/>
  <unicode hex="00AF"/>
  <note>
    macron
  </note>
  <outline>
    <contour>
      <point x="66" y="658" type="line"/>
      <point x="66" y="626" type="line"/>
      <point x="339" y="626" type="line"/>
      <point x="339" y="658" type="line"/>
    </contour>
  </outline>
</glyph>
<glyph name="twosuperior" format="1">
  <advance width="344"/>
  <unicode hex="00B2"/>
  <note>
    twosuperior
  </note>
  <outline>
    <contour>
      <point x="274" y="528" type="line" smooth="yes"/>
      <point x="262" y="528"/>
      <point x="257" y="521"/>
      <point x="256" y="507" type="curve"/>
      <point x="253" y="483" type="line"/>
      <point x="136" y="483" type="line" smooth="yes"/>
      <point x="127" y="483"/>
      <point x="108" y="482"/>
      <point x="97" y="478" type="curve"/>
      <point x="200" y="583" type="line" smooth="yes"/>
      <point x="240" y="623"/>
      <point x="277" y="658"/>
      <point x="277" y="714" type="curve" smooth="yes"/>
      <point x="277" y="776"/>
      <point x="230" y="812"/>
      <point x="171" y="812" type="curve" smooth="yes"/>
      <point x="111" y="812"/>
      <point x="65" y="779"/>
      <point x="55" y="713" type="curve"/>
      <point x="79" y="709" type="line" smooth="yes"/>
      <point x="86" y="708"/>
      <point x="90" y="713"/>
      <point x="92" y="719" type="curve"/>
      <point x="108" y="760"/>
      <point x="132" y="781"/>
      <point x="169" y="781" type="curve" smooth="yes"/>
      <point x="209" y="781"/>
      <point x="240" y="758"/>
      <point x="240" y="712" type="curve" smooth="yes"/>
      <point x="240" y="668"/>
      <point x="211" y="634"/>
      <point x="173" y="596" type="curve" smooth="yes"/>
      <point x="55" y="477" type="line"/>
      <point x="51" y="474"/>
      <point x="48" y="466"/>
      <point x="48" y="462" type="curve" smooth="yes"/>
      <point x="48" y="450" type="line"/>
      <point x="251" y="450" type="line"/>
      <point x="285" y="450" type="line"/>
      <point x="285" y="471" type="line"/>
      <point x="285" y="528" type="line"/>
    </contour>
  </outline>
</glyph>
<glyph name="mu" format="1">
  <advance width="550"/>
  <unicode hex="00B5"/>
  <note>
    mu
  </note>
  <outline>
    <contour>
      <point x="130" y="498" type="line"/>
      <point x="82" y="498" type="line"/>
      <point x="82" y="-155" type="line" smooth="yes"/>
      <point x="82" y="-168"/>
      <point x="91" y="-176"/>
      <point x="104" y="-176" type="curve" smooth="yes"/>
      <point x="128" y="-176" type="line"/>
      <point x="128" y="-12" type="line" smooth="yes"/>
      <point x="128" y="7"/>
      <point x="126" y="57"/>
      <point x="124" y="72" type="curve"/>
      <point x="149" y="22"/>
      <point x="194" y="-3"/>
      <point x="258" y="-3" type="curve" smooth="yes"/>
      <point x="327" y="-3"/>
      <point x="383" y="30"/>
      <point x="428" y="87" type="curve"/>
      <point x="433" y="13" type="line"/>
      <point x="433" y="4"/>
      <point x="439" y="0"/>
      <point x="448" y="0" type="curve" smooth="yes"/>
      <point x="474" y="0" type="line"/>
      <point x="474" y="498" type="line"/>
      <point x="426" y="498" type="line"/>
      <point x="426" y="124" type="line"/>
      <point x="385" y="70"/>
      <point x="329" y="30"/>
      <point x="260" y="30" type="curve" smooth="yes"/>
      <point x="172" y="30"/>
      <point x="131" y="88"/>
      <point x="131" y="180" type="curve"/>
    </contour>
  </outline>
</glyph>
<glyph name="guillemotright" format="1">
  <advance width="381"/>
  <unicode hex="00BB"/>
  <note>
    guillemotright
  </note>
  <outline>
    <contour>
      <point x="332" y="263" type="line"/>
      <point x="211" y="452" type="line"/>
      <point x="196" y="445" type="line"/>
      <point x="185" y="438"/>
      <point x="188" y="430"/>
      <point x="192" y="421" type="curve"/>
      <point x="283" y="273" type="line" smooth="yes"/>
      <point x="287" y="266"/>
      <point x="291" y="262"/>
      <point x="294" y="259" type="curve"/>
      <point x="291" y="256"/>
      <point x="287" y="252"/>
      <point x="283" y="245" type="curve"/>
      <point x="192" y="99" type="line"/>
      <point x="189" y="92"/>
      <point x="183" y="83"/>
      <point x="196" y="75" type="curve"/>
      <point x="211" y="67" type="line"/>
      <point x="332" y="256" type="line"/>
    </contour>
    <contour>
      <point x="204" y="263" type="line"/>
      <point x="84" y="452" type="line"/>
      <point x="68" y="445" type="line"/>
      <point x="57" y="439"/>
      <point x="59" y="430"/>
      <point x="64" y="420" type="curve"/>
      <point x="156" y="273" type="line"/>
      <point x="160" y="266"/>
      <point x="163" y="262"/>
      <point x="166" y="259" type="curve"/>
      <point x="163" y="256"/>
      <point x="160" y="252"/>
      <point x="156" y="245" type="curve"/>
      <point x="64" y="98" type="line"/>
      <point x="61" y="92"/>
      <point x="55" y="82"/>
      <point x="68" y="74" type="curve"/>
      <point x="84" y="67" type="line"/>
      <point x="204" y="256" type="line"/>
    </contour>
  </outline>
</glyph>
<glyph name="Oslash" format="1">
  <advance width="755"/>
  <unicode hex="00D8"/>
  <note>
    Oslash
  </note>
  <outline>
    <contour>
      <point x="712" y="457"/>
      <point x="681" y="559"/>
      <point x="606" y="629" type="curve"/>
      <point x="688" y="740" type="line"/>
      <point x="661" y="740" type="line" smooth="yes"/>
      <point x="649" y="740"/>
      <point x="645" y="736"/>
      <point x="636" y="725" type="curve" smooth="yes"/>
      <point x="580" y="650" type="line"/>
      <point x="519" y="696"/>
      <point x="452" y="716"/>
      <point x="374" y="716" type="curve" smooth="yes"/>
      <point x="173" y="716"/>
      <point x="38" y="568"/>
      <point x="38" y="354" type="curve" smooth="yes"/>
      <point x="38" y="244"/>
      <point x="69" y="145"/>
      <point x="151" y="72" type="curve"/>
      <point x="58" y="-52" type="line"/>
      <point x="80" y="-52" type="line" smooth="yes"/>
      <point x="91" y="-52"/>
      <point x="103" y="-50"/>
      <point x="112" y="-36" type="curve"/>
      <point x="177" y="52" type="line"/>
      <point x="231" y="14"/>
      <point x="301" y="-8"/>
      <point x="374" y="-8" type="curve" smooth="yes"/>
      <point x="579" y="-8"/>
      <point x="712" y="140"/>
      <point x="712" y="354" type="curve" smooth="yes"/>
    </contour>
    <contour>
      <point x="90" y="539"/>
      <point x="196" y="672"/>
      <point x="374" y="672" type="curve" smooth="yes"/>
      <point x="437" y="672"/>
      <point x="505" y="651"/>
      <point x="553" y="613" type="curve"/>
      <point x="180" y="110" type="line"/>
      <point x="118" y="170"/>
      <point x="90" y="261"/>
      <point x="90" y="354" type="curve" smooth="yes"/>
    </contour>
    <contour>
      <point x="659" y="167"/>
      <point x="554" y="37"/>
      <point x="374" y="37" type="curve" smooth="yes"/>
      <point x="311" y="37"/>
      <point x="253" y="53"/>
      <point x="205" y="89" type="curve"/>
      <point x="577" y="590" type="line"/>
      <point x="636" y="529"/>
      <point x="659" y="445"/>
      <point x="659" y="354" type="curve" smooth="yes"/>
    </contour>
  </outline>
</glyph>
<glyph name="oslash" format="1">
  <advance width="540"/>
  <unicode hex="00F8"/>
  <note>
    oslash
  </note>
  <outline>
    <contour>
      <point x="505" y="531" type="line"/>
      <point x="480" y="531" type="line" smooth="yes"/>
      <point x="465" y="531"/>
      <point x="465" y="527"/>
      <point x="456" y="516" type="curve" smooth="yes"/>
      <point x="412" y="458" type="line"/>
      <point x="374" y="489"/>
      <point x="321" y="506"/>
      <point x="270" y="506" type="curve" smooth="yes"/>
      <point x="128" y="506"/>
      <point x="42" y="404"/>
      <point x="42" y="249" type="curve" smooth="yes"/>
      <point x="42" y="177"/>
      <point x="61" y="102"/>
      <point x="112" y="53" type="curve"/>
      <point x="44" y="-38" type="line"/>
      <point x="63" y="-38" type="line" smooth="yes"/>
      <point x="71" y="-38"/>
      <point x="86" y="-35"/>
      <point x="94" y="-22" type="curve"/>
      <point x="135" y="33" type="line"/>
      <point x="171" y="7"/>
      <point x="216" y="-6"/>
      <point x="270" y="-6" type="curve" smooth="yes"/>
      <point x="414" y="-6"/>
      <point x="496" y="96"/>
      <point x="496" y="249" type="curve" smooth="yes"/>
      <point x="496" y="315"/>
      <point x="479" y="387"/>
      <point x="435" y="436" type="curve"/>
    </contour>
    <contour>
      <point x="89" y="380"/>
      <point x="148" y="469"/>
      <point x="270" y="469" type="curve" smooth="yes"/>
      <point x="315" y="469"/>
      <point x="356" y="456"/>
      <point x="388" y="426" type="curve"/>
      <point x="136" y="87" type="line"/>
      <point x="102" y="127"/>
      <point x="89" y="189"/>
      <point x="89" y="249" type="curve" smooth="yes"/>
    </contour>
    <contour>
      <point x="225" y="30"/>
      <point x="188" y="42"/>
      <point x="159" y="65" type="curve"/>
      <point x="410" y="402" type="line"/>
      <point x="437" y="364"/>
      <point x="450" y="313"/>
      <point x="450" y="249" type="curve" smooth="yes"/>
      <point x="450" y="124"/>
      <point x="391" y="30"/>
      <point x="270" y="30" type="curve" smooth="yes"/>
    </contour>
  </outline>
</glyph>
<glyph name="Lslash" format="1">
  <advance width="591"/>
  <unicode hex="0141"/>
  <note>
    Lslash
  </note>
  <outline>
    <contour>
      <point x="515" y="132" type="line" smooth="yes"/>
      <point x="501" y="132"/>
      <point x="494" y="124"/>
      <point x="493" y="108" type="curve"/>
      <point x="488" y="44" type="line"/>
      <point x="195" y="44" type="line"/>
      <point x="195" y="317" type="line"/>
      <point x="394" y="423" type="line" smooth="yes"/>
      <point x="398" y="425"/>
      <point x="403" y="428"/>
      <point x="403" y="438" type="curve" smooth="yes"/>
      <point x="403" y="470" type="line"/>
      <point x="195" y="361" type="line"/>
      <point x="195" y="668" type="line"/>
      <point x="259" y="670" type="line"/>
      <point x="272" y="671"/>
      <point x="279" y="677"/>
      <point x="279" y="688" type="curve" smooth="yes"/>
      <point x="279" y="708" type="line"/>
      <point x="60" y="708" type="line"/>
      <point x="60" y="688" type="line" smooth="yes"/>
      <point x="60" y="677"/>
      <point x="67" y="671"/>
      <point x="80" y="670" type="curve"/>
      <point x="144" y="668" type="line"/>
      <point x="144" y="337" type="line"/>
      <point x="56" y="291" type="line" smooth="yes"/>
      <point x="50" y="288"/>
      <point x="46" y="282"/>
      <point x="46" y="276" type="curve" smooth="yes"/>
      <point x="46" y="243" type="line"/>
      <point x="144" y="294" type="line"/>
      <point x="144" y="40" type="line"/>
      <point x="80" y="38" type="line"/>
      <point x="67" y="37"/>
      <point x="60" y="31"/>
      <point x="60" y="20" type="curve" smooth="yes"/>
      <point x="60" y="0" type="line"/>
      <point x="539" y="0" type="line"/>
      <point x="539" y="132" type="line"/>
      <point x="519" y="132" type="line"/>
    </contour>
  </outline>
</glyph>
<glyph name="OE" format="1">
  <advance width="1092"/>
  <unicode hex="0152"/>
  <note>
    OE
  </note>
  <outline>
    <contour>
      <point x="609" y="708" type="line"/>
      <point x="609" y="541" type="line"/>
      <point x="561" y="648"/>
      <point x="465" y="715"/>
      <point x="341" y="715" type="curve" smooth="yes"/>
      <point x="152" y="715"/>
      <point x="38" y="560"/>
      <point x="38" y="354" type="curve" smooth="yes"/>
      <point x="38" y="152"/>
      <point x="147" y="-6"/>
      <point x="341" y="-6" type="curve" smooth="yes"/>
      <point x="464" y="-6"/>
      <point x="559" y="55"/>
      <point x="609" y="167" type="curve"/>
      <point x="609" y="0" type="line"/>
      <point x="1028" y="0" type="line"/>
      <point x="1028" y="147" type="line"/>
      <point x="1004" y="147" type="line" smooth="yes"/>
      <point x="988" y="147"/>
      <point x="983" y="137"/>
      <point x="982" y="122" type="curve"/>
      <point x="978" y="43" type="line"/>
      <point x="655" y="43" type="line"/>
      <point x="655" y="338" type="line"/>
      <point x="937" y="338" type="line"/>
      <point x="937" y="379" type="line"/>
      <point x="655" y="379" type="line"/>
      <point x="655" y="666" type="line"/>
      <point x="978" y="666" type="line"/>
      <point x="982" y="586" type="line"/>
      <point x="983" y="571"/>
      <point x="988" y="562"/>
      <point x="1004" y="562" type="curve" smooth="yes"/>
      <point x="1028" y="562" type="line"/>
      <point x="1028" y="708" type="line"/>
    </contour>
    <contour>
      <point x="517" y="37"/>
      <point x="347" y="37" type="curve" smooth="yes"/>
      <point x="178" y="37"/>
      <point x="90" y="178"/>
      <point x="90" y="354" type="curve" smooth="yes"/>
      <point x="90" y="533"/>
      <point x="182" y="672"/>
      <point x="347" y="672" type="curve" smooth="yes"/>
      <point x="512" y="672"/>
      <point x="604" y="536"/>
      <point x="604" y="354" type="curve" smooth="yes"/>
      <point x="604" y="178"/>
    </contour>
  </outline>
</glyph>
<glyph name="Tbar" format="1">
  <advance width="623"/>
  <unicode hex="0166"/>
  <outline>
    <contour>
      <point x="483" y="335" type="line"/>
      <point x="482" y="373" type="line"/>
      <point x="142" y="373" type="line"/>
      <point x="141" y="335" type="line"/>
    </contour>
    <component base="T"/>
  </outline>
</glyph>
<glyph name="florin" format="1">
  <advance width="478"/>
  <unicode hex="0192"/>
  <note>
    florin
  </note>
  <outline>
    <contour>
      <point x="262" y="398" type="line"/>
      <point x="443" y="398" type="line"/>
      <point x="443" y="434" type="line"/>
      <point x="264" y="434" type="line"/>
      <point x="277" y="528" type="line" smooth="yes"/>
      <point x="288" y="617"/>
      <point x="336" y="676"/>
      <point x="423" y="676" type="curve" smooth="yes"/>
      <point x="435" y="676"/>
      <point x="441" y="681"/>
      <point x="441" y="691" type="curve" smooth="yes"/>
      <point x="441" y="716" type="line"/>
      <point x="315" y="716"/>
      <point x="246" y="654"/>
      <point x="230" y="529" type="curve" smooth="yes"/>
      <point x="218" y="434" type="line"/>
      <point x="105" y="434" type="line"/>
      <point x="105" y="414" type="line" smooth="yes"/>
      <point x="105" y="406"/>
      <point x="109" y="403"/>
      <point x="118" y="402" type="curve"/>
      <point x="214" y="397" type="line"/>
      <point x="166" y="8" type="line" smooth="yes"/>
      <point x="156" y="-82"/>
      <point x="104" y="-140"/>
      <point x="22" y="-140" type="curve" smooth="yes"/>
      <point x="10" y="-140"/>
      <point x="4" y="-145"/>
      <point x="4" y="-156" type="curve" smooth="yes"/>
      <point x="4" y="-180" type="line"/>
      <point x="129" y="-180"/>
      <point x="198" y="-117"/>
      <point x="214" y="7" type="curve" smooth="yes"/>
    </contour>
  </outline>
</glyph>
<glyph name="caron" format="1">
  <advance width="376"/>
  <unicode hex="02C7"/>
  <note>
    caron
  </note>
  <outline>
    <contour>
      <point x="60" y="708" type="line"/>
      <point x="169" y="584" type="line"/>
      <point x="212" y="584" type="line"/>
      <point x="320" y="708" type="line"/>
      <point x="288" y="708" type="line" smooth="yes"/>
      <point x="288" y="708"/>
      <point x="279" y="707"/>
      <point x="274" y="702" type="curve"/>
      <point x="190" y="614" type="line"/>
      <point x="107" y="702" type="line"/>
      <point x="103" y="706"/>
      <point x="99" y="708"/>
      <point x="94" y="708" type="curve" smooth="yes"/>
    </contour>
  </outline>
</glyph>
<glyph name="breve" format="1">
  <advance width="372"/>
  <unicode hex="02D8"/>
  <note>
    breve
  </note>
  <outline>
    <contour>
      <point x="262" y="584"/>
      <point x="307" y="626"/>
      <point x="307" y="708" type="curve"/>
      <point x="273" y="708" type="line"/>
      <point x="273" y="655"/>
      <point x="245" y="616"/>
      <point x="187" y="616" type="curve" smooth="yes"/>
      <point x="134" y="616"/>
      <point x="102" y="646"/>
      <point x="102" y="708" type="curve"/>
      <point x="68" y="708" type="line"/>
      <point x="68" y="628"/>
      <point x="109" y="584"/>
      <point x="187" y="584" type="curve" smooth="yes"/>
    </contour>
  </outline>
</glyph>
<glyph name="ring" format="1">
  <advance width="302"/>
  <unicode hex="02DA"/>
  <note>
    ring
  </note>
  <outline>
    <contour>
      <point x="66" y="601"/>
      <point x="105" y="570"/>
      <point x="152" y="570" type="curve" smooth="yes"/>
      <point x="196" y="570"/>
      <point x="238" y="601"/>
      <point x="238" y="651" type="curve" smooth="yes"/>
      <point x="238" y="698"/>
      <point x="199" y="733"/>
      <point x="151" y="733" type="curve" smooth="yes"/>
      <point x="106" y="733"/>
      <point x="66" y="702"/>
      <point x="66" y="651" type="curve" smooth="yes"/>
    </contour>
    <contour>
      <point x="94" y="685"/>
      <point x="118" y="708"/>
      <point x="152" y="708" type="curve" smooth="yes"/>
      <point x="186" y="708"/>
      <point x="209" y="685"/>
      <point x="209" y="651" type="curve" smooth="yes"/>
      <point x="209" y="617"/>
      <point x="186" y="594"/>
      <point x="152" y="594" type="curve" smooth="yes"/>
      <point x="118" y="594"/>
      <point x="94" y="617"/>
      <point x="94" y="651" type="curve" smooth="yes"/>
    </contour>
  </outline>
</glyph>
<glyph name="ogonek" format="1">
  <advance width="288"/>
  <unicode hex="02DB"/>
  <note>
    ogonek
  </note>
  <outline>
    <contour>
      <point x="210" y="-121"/>
      <point x="206" y="-124" type="curve"/>
      <point x="199" y="-131"/>
      <point x="178" y="-138"/>
      <point x="156" y="-138" type="curve" smooth="yes"/>
      <point x="127" y="-138"/>
      <point x="100" y="-123"/>
      <point x="100" y="-88" type="curve" smooth="yes"/>
      <point x="100" y="-54"/>
      <point x="126" y="-23"/>
      <point x="166" y="0" type="curve"/>
      <point x="142" y="6" type="line"/>
      <point x="97" y="-21"/>
      <point x="62" y="-58"/>
      <point x="62" y="-98" type="curve" smooth="yes"/>
      <point x="62" y="-145"/>
      <point x="101" y="-169"/>
      <point x="148" y="-169" type="curve" smooth="yes"/>
      <point x="173" y="-169"/>
      <point x="205" y="-162"/>
      <point x="227" y="-142" type="curve"/>
      <point x="219" y="-126" type="line"/>
      <point x="217" y="-122"/>
    </contour>
  </outline>
</glyph>
<glyph name="tilde" format="1">
  <advance width="390"/>
  <unicode hex="02DC"/>
  <note>
    tilde
  </note>
  <outline>
    <contour>
      <point x="231" y="640"/>
      <point x="225" y="649"/>
      <point x="199" y="666" type="curve" smooth="yes"/>
      <point x="178" y="680"/>
      <point x="164" y="692"/>
      <point x="140" y="692" type="curve" smooth="yes"/>
      <point x="92" y="692"/>
      <point x="66" y="653"/>
      <point x="66" y="607" type="curve"/>
      <point x="97" y="607" type="line"/>
      <point x="99" y="633"/>
      <point x="109" y="658"/>
      <point x="141" y="658" type="curve" smooth="yes"/>
      <point x="161" y="658"/>
      <point x="167" y="649"/>
      <point x="193" y="632" type="curve" smooth="yes"/>
      <point x="214" y="618"/>
      <point x="228" y="606"/>
      <point x="252" y="606" type="curve" smooth="yes"/>
      <point x="300" y="606"/>
      <point x="324" y="641"/>
      <point x="324" y="691" type="curve"/>
      <point x="295" y="691" type="line"/>
      <point x="295" y="666"/>
      <point x="282" y="640"/>
      <point x="251" y="640" type="curve" smooth="yes"/>
    </contour>
  </outline>
</glyph>
<glyph name="dieresiscomb" format="1">
  <advance width="771"/>
  <unicode hex="0308"/>
  <outline>
    <contour>
      <point x="511" y="793"/>
      <point x="529" y="811"/>
      <point x="529" y="834" type="curve" smooth="yes"/>
      <point x="529" y="856"/>
      <point x="511" y="874"/>
      <point x="489" y="874" type="curve" smooth="yes"/>
      <point x="466" y="874"/>
      <point x="448" y="856"/>
      <point x="448" y="834" type="curve" smooth="yes"/>
      <point x="448" y="811"/>
      <point x="466" y="793"/>
      <point x="489" y="793" type="curve" smooth="yes"/>
    </contour>
    <contour>
      <point x="303" y="793"/>
      <point x="321" y="811"/>
      <point x="321" y="834" type="curve" smooth="yes"/>
      <point x="321" y="856"/>
      <point x="303" y="874"/>
      <point x="281" y="874" type="curve" smooth="yes"/>
      <point x="258" y="874"/>
      <point x="240" y="856"/>
      <point x="240" y="834" type="curve" smooth="yes"/>
      <point x="240" y="811"/>
      <point x="258" y="793"/>
      <point x="281" y="793" type="curve" smooth="yes"/>
    </contour>
    <contour>
      <point x="385" y="874" type="move" name="top"/>
    </contour>
    <contour>
      <point x="385" y="708" type="move" name="_top"/>
    </contour>
  </outline>
</glyph>
<glyph name="ringcomb" format="1">
  <advance width="771"/>
  <unicode hex="030A"/>
  <outline>
    <contour>
      <point x="431" y="736"/>
      <point x="469" y="772"/>
      <point x="469" y="815" type="curve" smooth="yes"/>
      <point x="469" y="859"/>
      <point x="431" y="894"/>
      <point x="385" y="894" type="curve" smooth="yes"/>
      <point x="340" y="894"/>
      <point x="301" y="859"/>
      <point x="301" y="815" type="curve" smooth="yes"/>
      <point x="301" y="772"/>
      <point x="340" y="736"/>
      <point x="385" y="736" type="curve" smooth="yes"/>
    </contour>
    <contour>
      <point x="355" y="760"/>
      <point x="330" y="785"/>
      <point x="330" y="815" type="curve" smooth="yes"/>
      <point x="330" y="845"/>
      <point x="355" y="870"/>
      <point x="385" y="870" type="curve" smooth="yes"/>
      <point x="415" y="870"/>
      <point x="440" y="845"/>
      <point x="440" y="815" type="curve" smooth="yes"/>
      <point x="440" y="785"/>
      <point x="415" y="760"/>
      <point x="385" y="760" type="curve" smooth="yes"/>
    </contour>
    <contour>
      <point x="385" y="894" type="move" name="top"/>
    </contour>
    <contour>
      <point x="385" y="708" type="move" name="_top"/>
    </contour>
  </outline>
</glyph>
<glyph name="emdash" format="1">
  <advance width="783"/>
  <unicode hex="2014"/>
  <note>
    emdash
  </note>
  <outline>
    <contour>
      <point x="68" y="307" type="line"/>
      <point x="68" y="272" type="line"/>
      <point x="717" y="272" type="line"/>
      <point x="717" y="307" type="line"/>
    </contour>
  </outline>
</glyph>
<glyph name="quoteright" format="1">
  <advance width="207"/>
  <unicode hex="2019"/>
  <note>
    quoteright
  </note>
  <outline>
    <contour>
      <point x="92" y="726" type="line" smooth="yes"/>
      <point x="83" y="722"/>
      <point x="82" y="714"/>
      <point x="86" y="708" type="curve"/>
      <point x="98" y="688"/>
      <point x="104" y="667"/>
      <point x="104" y="648" type="curve" smooth="yes"/>
      <point x="104" y="612"/>
      <point x="86" y="579"/>
      <point x="60" y="545" type="curve"/>
      <point x="56" y="541"/>
      <point x="56" y="535"/>
      <point x="60" y="531" type="curve"/>
      <point x="74" y="522" type="line"/>
      <point x="113" y="561"/>
      <point x="143" y="607"/>
      <point x="143" y="663" type="curve" smooth="yes"/>
      <point x="143" y="690"/>
      <point x="136" y="712"/>
      <point x="122" y="738" type="curve"/>
    </contour>
  </outline>
</glyph>
<glyph name="quotedblright" format="1">
  <advance width="341"/>
  <unicode hex="201D"/>
  <note>
    quotedblright
  </note>
  <outline>
    <contour>
      <point x="92" y="726" type="line" smooth="yes"/>
      <point x="83" y="722"/>
      <point x="82" y="714"/>
      <point x="86" y="708" type="curve"/>
      <point x="98" y="688"/>
      <point x="104" y="667"/>
      <point x="104" y="648" type="curve" smooth="yes"/>
      <point x="104" y="612"/>
      <point x="86" y="579"/>
      <point x="60" y="545" type="curve"/>
      <point x="56" y="541"/>
      <point x="56" y="535"/>
      <point x="60" y="531" type="curve"/>
      <point x="74" y="522" type="line"/>
      <point x="113" y="561"/>
      <point x="143" y="607"/>
      <point x="143" y="663" type="curve" smooth="yes"/>
      <point x="143" y="690"/>
      <point x="136" y="712"/>
      <point x="122" y="738" type="curve"/>
    </contour>
    <contour>
      <point x="226" y="725" type="line" smooth="yes"/>
      <point x="221" y="723"/>
      <point x="214" y="717"/>
      <point x="221" y="707" type="curve"/>
      <point x="233" y="687"/>
      <point x="238" y="667"/>
      <point x="238" y="648" type="curve" smooth="yes"/>
      <point x="238" y="612"/>
      <point x="220" y="579"/>
      <point x="194" y="545" type="curve"/>
      <point x="191" y="542"/>
      <point x="191" y="535"/>
      <point x="195" y="531" type="curve"/>
      <point x="209" y="522" type="line"/>
      <point x="246" y="559"/>
      <point x="278" y="610"/>
      <point x="278" y="663" type="curve" smooth="yes"/>
      <point x="278" y="685"/>
      <point x="271" y="710"/>
      <point x="256" y="738" type="curve"/>
    </contour>
  </outline>
</glyph>
<glyph name="bullet" format="1">
  <advance width="419"/>
  <unicode hex="2022"/>
  <note>
    bullet
  </note>
  <outline>
    <contour>
      <point x="290" y="152"/>
      <point x="356" y="218"/>
      <point x="356" y="299" type="curve" smooth="yes"/>
      <point x="356" y="379"/>
      <point x="290" y="445"/>
      <point x="210" y="445" type="curve" smooth="yes"/>
      <point x="129" y="445"/>
      <point x="63" y="379"/>
      <point x="63" y="299" type="curve" smooth="yes"/>
      <point x="63" y="218"/>
      <point x="129" y="152"/>
      <point x="210" y="152" type="curve" smooth="yes"/>
    </contour>
  </outline>
</glyph>
<glyph name="guilsinglleft" format="1">
  <advance width="251"/>
  <unicode hex="2039"/>
  <note>
    guilsinglleft
  </note>
  <outline>
    <contour>
      <point x="50" y="256" type="line"/>
      <point x="171" y="67" type="line"/>
      <point x="186" y="74" type="line"/>
      <point x="197" y="81"/>
      <point x="194" y="89"/>
      <point x="190" y="98" type="curve"/>
      <point x="99" y="246" type="line" smooth="yes"/>
      <point x="95" y="253"/>
      <point x="91" y="257"/>
      <point x="88" y="260" type="curve"/>
      <point x="91" y="263"/>
      <point x="95" y="267"/>
      <point x="99" y="274" type="curve"/>
      <point x="190" y="420" type="line"/>
      <point x="193" y="427"/>
      <point x="199" y="436"/>
      <point x="186" y="444" type="curve"/>
      <point x="171" y="452" type="line"/>
      <point x="50" y="263" type="line"/>
    </contour>
  </outline>
</glyph>
<glyph name="Euro" format="1">
  <advance width="626"/>
  <unicode hex="20AC"/>
  <note>
    Euro
  </note>
  <outline>
    <contour>
      <point x="40" y="432" type="line"/>
      <point x="40" y="402" type="line"/>
      <point x="118" y="402" type="line"/>
      <point x="115" y="367"/>
      <point x="118" y="325"/>
      <point x="118" y="314" type="curve"/>
      <point x="40" y="314" type="line"/>
      <point x="40" y="284" type="line"/>
      <point x="120" y="284" type="line"/>
      <point x="140" y="111"/>
      <point x="224" y="-8"/>
      <point x="386" y="-8" type="curve" smooth="yes"/>
      <point x="471" y="-8"/>
      <point x="538" y="27"/>
      <point x="592" y="94" type="curve"/>
      <point x="573" y="112" type="line" smooth="yes"/>
      <point x="566" y="119"/>
      <point x="559" y="116"/>
      <point x="553" y="110" type="curve" smooth="yes"/>
      <point x="499" y="56"/>
      <point x="459" y="34"/>
      <point x="388" y="34" type="curve" smooth="yes"/>
      <point x="254" y="34"/>
      <point x="185" y="137"/>
      <point x="170" y="285" type="curve"/>
      <point x="410" y="285" type="line" smooth="yes"/>
      <point x="420" y="285"/>
      <point x="426" y="290"/>
      <point x="426" y="299" type="curve" smooth="yes"/>
      <point x="426" y="314" type="line"/>
      <point x="167" y="314" type="line"/>
      <point x="167" y="399"/>
      <point x="165" y="364"/>
      <point x="168" y="403" type="curve"/>
      <point x="456" y="403" type="line" smooth="yes"/>
      <point x="467" y="403"/>
      <point x="472" y="409"/>
      <point x="472" y="417" type="curve" smooth="yes"/>
      <point x="472" y="432" type="line"/>
      <point x="170" y="432" type="line"/>
      <point x="187" y="573"/>
      <point x="260" y="673"/>
      <point x="392" y="673" type="curve" smooth="yes"/>
      <point x="451" y="673"/>
      <point x="504" y="651"/>
      <point x="546" y="609" type="curve" smooth="yes"/>
      <point x="553" y="602"/>
      <point x="561" y="605"/>
      <point x="566" y="610" type="curve"/>
      <point x="581" y="627" type="line"/>
      <point x="530" y="686"/>
      <point x="475" y="714"/>
      <point x="389" y="714" type="curve" smooth="yes"/>
      <point x="232" y="714"/>
      <point x="140" y="592"/>
      <point x="121" y="432" type="curve"/>
    </contour>
  </outline>
</glyph>
<glyph name="partialdiff" format="1">
  <advance width="568"/>
  <unicode hex="2202"/>
  <note>
    partialdiff
  </note>
  <outline>
    <contour>
      <point x="194" y="653" type="line"/>
      <point x="199" y="646"/>
      <point x="207" y="642"/>
      <point x="219" y="650" type="curve" smooth="yes"/>
      <point x="238" y="663"/>
      <point x="287" y="678"/>
      <point x="318" y="678" type="curve" smooth="yes"/>
      <point x="423" y="678"/>
      <point x="464" y="580"/>
      <point x="464" y="452" type="curve" smooth="yes"/>
      <point x="464" y="432" type="line"/>
      <point x="464" y="415"/>
      <point x="462" y="366"/>
      <point x="460" y="350" type="curve"/>
      <point x="435" y="423"/>
      <point x="373" y="466"/>
      <point x="296" y="466" type="curve" smooth="yes"/>
      <point x="147" y="466"/>
      <point x="44" y="342"/>
      <point x="44" y="190" type="curve" smooth="yes"/>
      <point x="44" y="77"/>
      <point x="114" y="-6"/>
      <point x="226" y="-6" type="curve" smooth="yes"/>
      <point x="422" y="-6"/>
      <point x="508" y="205"/>
      <point x="508" y="451" type="curve" smooth="yes"/>
      <point x="508" y="600"/>
      <point x="453" y="717"/>
      <point x="324" y="717" type="curve" smooth="yes"/>
      <point x="270" y="717"/>
      <point x="230" y="702"/>
      <point x="184" y="670" type="curve"/>
    </contour>
    <contour>
      <point x="146" y="32"/>
      <point x="94" y="96"/>
      <point x="94" y="191" type="curve" smooth="yes"/>
      <point x="94" y="324"/>
      <point x="174" y="428"/>
      <point x="302" y="428" type="curve" smooth="yes"/>
      <point x="381" y="428"/>
      <point x="434" y="371"/>
      <point x="448" y="290" type="curve"/>
      <point x="425" y="153"/>
      <point x="356" y="32"/>
      <point x="232" y="32" type="curve" smooth="yes"/>
    </contour>
  </outline>
</glyph>
<glyph name="summation" format="1">
  <advance width="669"/>
  <unicode hex="2211"/>
  <note>
    summation
  </note>
  <outline>
    <contour>
      <point x="38" y="708" type="line"/>
      <point x="38" y="690" type="line" smooth="yes"/>
      <point x="38" y="684"/>
      <point x="40" y="678"/>
      <point x="44" y="674" type="curve"/>
      <point x="380" y="266" type="line"/>
      <point x="44" y="-142" type="line" smooth="yes"/>
      <point x="40" y="-147"/>
      <point x="38" y="-152"/>
      <point x="38" y="-158" type="curve" smooth="yes"/>
      <point x="38" y="-176" type="line"/>
      <point x="632" y="-176" type="line"/>
      <point x="632" y="-135" type="line"/>
      <point x="112" y="-135" type="line"/>
      <point x="435" y="259" type="line"/>
      <point x="435" y="272" type="line"/>
      <point x="112" y="666" type="line"/>
      <point x="632" y="666" type="line"/>
      <point x="632" y="707" type="line"/>
    </contour>
  </outline>
</glyph>
<glyph name="infinity" format="1">
  <advance width="736"/>
  <unicode hex="221E"/>
  <note>
    infinity
  </note>
  <outline>
    <contour>
      <point x="610" y="141"/>
      <point x="674" y="207"/>
      <point x="674" y="296" type="curve" smooth="yes"/>
      <point x="674" y="382"/>
      <point x="611" y="450"/>
      <point x="530" y="450" type="curve" smooth="yes"/>
      <point x="461" y="450"/>
      <point x="414" y="398"/>
      <point x="368" y="330" type="curve"/>
      <point x="320" y="402"/>
      <point x="274" y="450"/>
      <point x="208" y="450" type="curve" smooth="yes"/>
      <point x="128" y="450"/>
      <point x="64" y="385"/>
      <point x="64" y="296" type="curve" smooth="yes"/>
      <point x="64" y="207"/>
      <point x="124" y="141"/>
      <point x="208" y="141" type="curve" smooth="yes"/>
      <point x="274" y="141"/>
      <point x="325" y="192"/>
      <point x="368" y="261" type="curve"/>
      <point x="409" y="196"/>
      <point x="462" y="141"/>
      <point x="530" y="141" type="curve" smooth="yes"/>
    </contour>
    <contour>
      <point x="148" y="180"/>
      <point x="104" y="225"/>
      <point x="104" y="295" type="curve" smooth="yes"/>
      <point x="104" y="364"/>
      <point x="145" y="410"/>
      <point x="210" y="410" type="curve" smooth="yes"/>
      <point x="268" y="410"/>
      <point x="307" y="357"/>
      <point x="347" y="295" type="curve"/>
      <point x="303" y="229"/>
      <point x="267" y="180"/>
      <point x="210" y="180" type="curve" smooth="yes"/>
    </contour>
    <contour>
      <point x="472" y="180"/>
      <point x="436" y="227"/>
      <point x="391" y="295" type="curve"/>
      <point x="432" y="357"/>
      <point x="468" y="410"/>
      <point x="529" y="410" type="curve" smooth="yes"/>
      <point x="593" y="410"/>
      <point x="634" y="360"/>
      <point x="634" y="295" type="curve" smooth="yes"/>
      <point x="634" y="229"/>
      <point x="591" y="180"/>
      <point x="529" y="180" type="curve" smooth="yes"/>
    </contour>
  </outline>
</glyph>
<glyph name="uni2669" format="1">
  <advance width="172"/>
  <unicode hex="2669"/>
  <note>
    uni2669
  </note>
  <outline>
    <contour>
      <point x="85" y="728" type="line"/>
      <point x="85" y="-176" type="line"/>
      <point x="87" y="-176" type="line"/>
      <point x="87" y="728" type="line"/>
    </contour>
  </outline>
</glyph>
<glyph name="fi" format="1">
  <advance width="588"/>
  <unicode hex="FB01"/>
  <note>
    fi
  </note>
  <outline>
    <contour>
      <point x="467" y="40" type="line"/>
      <point x="467" y="482" type="line"/>
      <point x="176" y="482" type="line"/>
      <point x="176" y="523" type="line" smooth="yes"/>
      <point x="176" y="626"/>
      <point x="232" y="686"/>
      <point x="329" y="686" type="curve" smooth="yes"/>
      <point x="358" y="686"/>
      <point x="386" y="680"/>
      <point x="410" y="666" type="curve"/>
      <point x="406" y="662"/>
      <point x="401" y="651"/>
      <point x="400" y="639" type="curve" smooth="yes"/>
      <point x="400" y="611"/>
      <point x="421" y="594"/>
      <point x="444" y="594" type="curve" smooth="yes"/>
      <point x="469" y="594"/>
      <point x="488" y="613"/>
      <point x="488" y="637" type="curve" smooth="yes"/>
      <point x="488" y="647"/>
      <point x="486" y="657"/>
      <point x="474" y="670" type="curve"/>
      <point x="439" y="706"/>
      <point x="390" y="723"/>
      <point x="329" y="723" type="curve" smooth="yes"/>
      <point x="202" y="723"/>
      <point x="129" y="647"/>
      <point x="129" y="525" type="curve" smooth="yes"/>
      <point x="129" y="482" type="line"/>
      <point x="45" y="482" type="line"/>
      <point x="45" y="462" type="line" smooth="yes"/>
      <point x="45" y="454"/>
      <point x="49" y="451"/>
      <point x="59" y="450" type="curve" smooth="yes"/>
      <point x="129" y="445" type="line"/>
      <point x="129" y="40" type="line"/>
      <point x="67" y="38" type="line"/>
      <point x="54" y="37"/>
      <point x="47" y="31"/>
      <point x="47" y="20" type="curve" smooth="yes"/>
      <point x="47" y="0" type="line"/>
      <point x="261" y="0" type="line"/>
      <point x="261" y="20" type="line" smooth="yes"/>
      <point x="261" y="31"/>
      <point x="254" y="37"/>
      <point x="241" y="38" type="curve"/>
      <point x="177" y="40" type="line"/>
      <point x="177" y="446" type="line"/>
      <point x="420" y="446" type="line"/>
      <point x="420" y="40" type="line"/>
      <point x="356" y="38" type="line"/>
      <point x="343" y="37"/>
      <point x="336" y="31"/>
      <point x="336" y="20" type="curve" smooth="yes"/>
      <point x="336" y="0" type="line"/>
      <point x="552" y="0" type="line"/>
      <point x="552" y="20" type="line" smooth="yes"/>
      <point x="552" y="31"/>
      <point x="545" y="37"/>
      <point x="532" y="38" type="curve"/>
    </contour>
  </outline>
</glyph>
<glyph name="acutecomb.case" format="1">
  <advance width="300"/>
  <outline>
    <contour>
      <point x="219" y="716" type="line"/>
      <point x="172" y="716" type="line" smooth="yes"/>
      <point x="158" y="716"/>
      <point x="151" y="712"/>
      <point x="143" y="700" type="curve" smooth="yes"/>
      <point x="64" y="581" type="line"/>
      <point x="93" y="581" type="line" smooth="yes"/>
      <point x="103" y="581"/>
      <point x="104" y="582"/>
      <point x="111" y="589" type="curve"/>
    </contour>
    <contour>
      <point x="142" y="716" type="move" name="top"/>
    </contour>
    <contour>
      <point x="75" y="498" type="move" name="_top"/>
    </contour>
  </outline>
</glyph>
<glyph name="hungarumlautcomb.case" format="1">
  <advance width="400"/>
  <outline>
    <contour>
      <point x="361" y="716" type="line"/>
      <point x="314" y="716" type="line" smooth="yes"/>
      <point x="300" y="716"/>
      <point x="293" y="712"/>
      <point x="285" y="700" type="curve" smooth="yes"/>
      <point x="206" y="580" type="line"/>
      <point x="235" y="580" type="line" smooth="yes"/>
      <point x="244" y="580"/>
      <point x="247" y="583"/>
      <point x="253" y="589" type="curve"/>
    </contour>
    <contour>
      <point x="218" y="716" type="line"/>
      <point x="171" y="716" type="line" smooth="yes"/>
      <point x="157" y="716"/>
      <point x="150" y="712"/>
      <point x="142" y="700" type="curve" smooth="yes"/>
      <point x="63" y="580" type="line"/>
      <point x="92" y="580" type="line" smooth="yes"/>
      <point x="101" y="580"/>
      <point x="104" y="583"/>
      <point x="110" y="589" type="curve"/>
    </contour>
    <contour>
      <point x="168" y="498" type="move" name="_top"/>
    </contour>
  </outline>
</glyph>
